<svg xmlns="http://www.w3.org/2000/svg" viewBox="0 0 512 512" role="img" aria-label="Lion City Whispers logo">
  <defs>
    <radialGradient id="bg" cx="36%" cy="24%" r="76%">
      <stop offset="0" stop-color="#1d3f38" />
      <stop offset="0.52" stop-color="#0b1917" />
      <stop offset="1" stop-color="#030706" />
    </radialGradient>
    <linearGradient id="gold" x1="88" y1="68" x2="418" y2="438" gradientUnits="userSpaceOnUse">
      <stop offset="0" stop-color="#fff6dc" />
      <stop offset="0.42" stop-color="#d7ae63" />
      <stop offset="1" stop-color="#7d5c21" />
    </linearGradient>
    <linearGradient id="jade" x1="256" y1="68" x2="256" y2="448" gradientUnits="userSpaceOnUse">
      <stop offset="0" stop-color="#55f2d9" />
      <stop offset="1" stop-color="#0c7b6c" />
    </linearGradient>
    <filter id="softGlow" x="-24%" y="-24%" width="148%" height="148%">
      <feGaussianBlur stdDeviation="9" result="blur" />
      <feColorMatrix in="blur" type="matrix" values="0 0 0 0 0.24 0 0 0 0 0.88 0 0 0 0 0.79 0 0 0 0.55 0" />
      <feMerge>
        <feMergeNode />
        <feMergeNode in="SourceGraphic" />
      </feMerge>
    </filter>
    <filter id="goldGlow" x="-18%" y="-18%" width="136%" height="136%">
      <feGaussianBlur stdDeviation="5" result="blur" />
      <feColorMatrix in="blur" type="matrix" values="0 0 0 0 0.93 0 0 0 0 0.68 0 0 0 0 0.28 0 0 0 0.58 0" />
      <feMerge>
        <feMergeNode />
        <feMergeNode in="SourceGraphic" />
      </feMerge>
    </filter>
  </defs>

  <rect width="512" height="512" rx="112" fill="url(#bg)" />
  <path d="M96 420C142 386 180 390 220 414C260 438 304 438 352 408C376 393 394 386 416 386" fill="none" stroke="url(#jade)" stroke-width="18" stroke-linecap="round" opacity="0.34" />
  <path d="M88 392C141 356 188 358 236 388C286 420 334 414 416 360" fill="none" stroke="url(#jade)" stroke-width="10" stroke-linecap="round" opacity="0.74" filter="url(#softGlow)" />

  <circle cx="256" cy="256" r="214" fill="none" stroke="url(#gold)" stroke-width="5" stroke-dasharray="18 8 4 8" opacity="0.64" />
  <circle cx="256" cy="256" r="190" fill="rgba(7, 16, 15, 0.42)" stroke="url(#jade)" stroke-width="7" opacity="0.9" filter="url(#softGlow)" />
  <circle cx="256" cy="256" r="170" fill="none" stroke="url(#gold)" stroke-width="2" opacity="0.62" />

  <g fill="url(#gold)" filter="url(#goldGlow)">
    <path d="M257 98C232 117 224 144 241 164C254 179 285 172 293 149C300 128 281 108 257 98Z" />
    <path d="M238 131C181 143 144 188 144 239C144 286 171 321 207 333C236 343 267 324 274 292C278 273 265 255 247 254C229 253 213 265 207 284C196 271 190 254 194 233C201 196 234 175 270 174C278 174 284 166 282 158C278 139 260 126 238 131Z" />
    <path d="M280 177C321 174 354 193 368 224C380 251 372 282 347 300C323 317 289 312 276 289C267 273 275 252 293 246C307 241 324 248 330 260C336 247 331 228 318 218C304 207 285 207 269 213C260 201 263 184 280 177Z" />
    <path d="M194 332C231 348 276 347 316 328C300 363 264 383 222 378C199 375 184 359 194 332Z" opacity="0.86" />
  </g>

  <circle cx="270" cy="203" r="8" fill="#55f2d9" filter="url(#softGlow)" />
  <path d="M235 222C250 214 268 214 282 222" fill="none" stroke="#fff6dc" stroke-width="5" stroke-linecap="round" opacity="0.52" />

  <g fill="#55f2d9" filter="url(#softGlow)">
    <circle cx="256" cy="72" r="5" />
    <circle cx="256" cy="440" r="5" />
    <circle cx="72" cy="256" r="5" />
    <circle cx="440" cy="256" r="5" />
  </g>
  <g stroke="#d7ae63" stroke-width="3" stroke-linecap="round" opacity="0.72">
    <path d="M136 136l20 20" />
    <path d="M376 136l-20 20" />
    <path d="M136 376l20-20" />
    <path d="M376 376l-20-20" />
  </g>
</svg>
