<svg xmlns="http://www.w3.org/2000/svg" viewBox="0 0 512 512" role="img" aria-label="Lion City Whispers logo">
  <defs>
    <linearGradient id="bg" x1="80" y1="48" x2="432" y2="464" gradientUnits="userSpaceOnUse">
      <stop offset="0" stop-color="#10231f" />
      <stop offset="0.58" stop-color="#07100f" />
      <stop offset="1" stop-color="#020605" />
    </linearGradient>
    <linearGradient id="gold" x1="124" y1="86" x2="388" y2="414" gradientUnits="userSpaceOnUse">
      <stop offset="0" stop-color="#fff6dc" />
      <stop offset="0.36" stop-color="#fed685" />
      <stop offset="1" stop-color="#8e6827" />
    </linearGradient>
    <linearGradient id="jade" x1="256" y1="100" x2="256" y2="416" gradientUnits="userSpaceOnUse">
      <stop offset="0" stop-color="#38e2c7" />
      <stop offset="1" stop-color="#0d7166" />
    </linearGradient>
  </defs>

  <rect width="512" height="512" rx="104" fill="url(#bg)" />
  <rect x="38" y="38" width="436" height="436" rx="82" fill="none" stroke="#fed685" stroke-width="6" opacity="0.78" />
  <rect x="58" y="58" width="396" height="396" rx="66" fill="none" stroke="#38e2c7" stroke-width="3" opacity="0.55" />

  <path d="M96 382C142 350 187 352 234 380C282 409 333 404 416 350" fill="none" stroke="url(#jade)" stroke-width="16" stroke-linecap="round" />
  <path d="M112 420C156 394 191 398 228 420C270 444 318 440 392 398" fill="none" stroke="#1aa995" stroke-width="8" stroke-linecap="round" opacity="0.72" />

  <circle cx="256" cy="246" r="154" fill="#07100f" stroke="url(#gold)" stroke-width="8" />
  <circle cx="256" cy="246" r="132" fill="none" stroke="#38e2c7" stroke-width="5" opacity="0.76" />

  <g fill="url(#gold)">
    <path d="M258 104C230 124 224 151 244 169C263 185 294 171 296 145C298 124 281 111 258 104Z" />
    <path d="M241 139C184 150 147 195 148 241C149 286 177 323 215 335C246 345 278 326 284 293C287 274 274 256 255 254C234 252 218 267 211 289C199 276 194 256 198 235C206 198 237 177 274 177C283 177 288 168 285 159C280 144 262 135 241 139Z" />
    <path d="M282 180C322 176 355 195 368 226C379 253 370 282 347 299C323 316 288 311 276 289C267 273 276 253 294 247C310 241 325 248 332 262C338 247 332 227 319 218C305 207 286 208 270 214C260 201 265 184 282 180Z" />
    <path d="M195 332C231 348 276 347 318 327C301 365 265 385 222 379C199 376 185 359 195 332Z" opacity="0.92" />
  </g>

  <circle cx="271" cy="204" r="7" fill="#07100f" />
  <circle cx="272" cy="203" r="3" fill="#38e2c7" />
  <path d="M234 223C250 214 269 214 284 223" fill="none" stroke="#fff6dc" stroke-width="5" stroke-linecap="round" opacity="0.72" />

  <g fill="#38e2c7">
    <circle cx="256" cy="82" r="5" />
    <circle cx="256" cy="430" r="5" />
    <circle cx="82" cy="256" r="5" />
    <circle cx="430" cy="256" r="5" />
  </g>
</svg>
